<?xml version="1.0" encoding="UTF-8" standalone="no"?>
<!-- Created with Inkscape (http://www.inkscape.org/) -->

<svg
   xmlns:dc="http://purl.org/dc/elements/1.1/"
   xmlns:cc="http://creativecommons.org/ns#"
   xmlns:rdf="http://www.w3.org/1999/02/22-rdf-syntax-ns#"
   xmlns:svg="http://www.w3.org/2000/svg"
   xmlns="http://www.w3.org/2000/svg"
   xmlns:sodipodi="http://sodipodi.sourceforge.net/DTD/sodipodi-0.dtd"
   xmlns:inkscape="http://www.inkscape.org/namespaces/inkscape"
   version="1.0"
   width="650"
   height="700"
   id="svg2"
   sodipodi:docname="Avio.svg"
   inkscape:version="0.92.4 (5da689c313, 2019-01-14)">
  <metadata
     id="metadata8">
    <rdf:RDF>
      <cc:Work
         rdf:about="">
        <dc:format>image/svg+xml</dc:format>
        <dc:type
           rdf:resource="http://purl.org/dc/dcmitype/StillImage" />
      </cc:Work>
    </rdf:RDF>
  </metadata>
  <sodipodi:namedview
     pagecolor="#ffffff"
     bordercolor="#666666"
     borderopacity="1"
     objecttolerance="10"
     gridtolerance="10"
     guidetolerance="10"
     inkscape:pageopacity="0"
     inkscape:pageshadow="2"
     inkscape:window-width="732"
     inkscape:window-height="480"
     id="namedview6"
     showgrid="false"
     inkscape:zoom="0.33714286"
     inkscape:cx="830.72034"
     inkscape:cy="350"
     inkscape:window-x="0"
     inkscape:window-y="0"
     inkscape:window-maximized="0"
     inkscape:current-layer="svg2" />
  <defs
     id="defs4" />
  <g
     id="layer1"
     transform="rotate(90,325,350)">
    <path
       d="m 293.30139,160.26563 0.22945,66.375 -69.15584,56.1875 v -26.96875 h -23.09375 v 46.53125 l -70.79596,59.52875 0.0757,-22.71625 H 109.5 v 40.34375 l -87.125,74.78125 -7.78125,35.78125 191.375,-104.25 87.125,-23.34375 1.5625,154.03125 17.09375,73.125 -90.90625,68.625 v 29.40625 l 104.3125,-22.15625 104,22.09375 v -29.40625 l -90.90625,-68.625 17.09375,-73.125 1.5625,-154.03125 87.125,23.34375 191.375,104.25 L 627.625,454.26563 540.5,379.48438 v -40.375 h -20.09652 l 0.0579,23.75391 -71.74267,-60.53516 V 255.79688 H 425.625 v 26.96875 l -70.93325,-56.1875 0.007,-66.375 c 0,-27.01419 0.99107,-111.22421 -29.41777,-147.90626 -29.39642,41.86964 -30.38544,96.99013 -31.97986,147.96876 z"
       style="color:#000000;display:inline;overflow:visible;visibility:visible;opacity:1;fill:#000000;fill-opacity:1;fill-rule:nonzero;stroke:none;stroke-width:1;stroke-linecap:round;stroke-linejoin:miter;stroke-miterlimit:4;stroke-dasharray:none;stroke-dashoffset:0;stroke-opacity:1;marker:none;marker-start:none;marker-mid:none;marker-end:none"
       id="path1882"
       inkscape:connector-curvature="0" />
  </g>
</svg>
